<svg width="800" height="640" viewBox="0 0 800 640" xmlns="http://www.w3.org/2000/svg" role="img" aria-hidden="true">
  <defs>
  <linearGradient id="condition-shoulder-placeholder-l-bg" x1="78.67882181755229%" y1="9.0423977855504%" x2="21.32117818244771%" y2="90.9576022144496%">
    <stop offset="0" stop-color="#EEECFB" />
    <stop offset="0.55" stop-color="#E5F6FD" />
    <stop offset="1" stop-color="#ffffff" />
  </linearGradient>
  <linearGradient id="condition-shoulder-placeholder-l-brand" x1="0%" y1="0%" x2="100%" y2="100%">
    <stop offset="0" stop-color="#2F2483" />
    <stop offset="1" stop-color="#009EE3" />
  </linearGradient>
  <radialGradient id="condition-shoulder-placeholder-l-glow" cx="50%" cy="35%" r="65%">
    <stop offset="0" stop-color="#009EE3" stop-opacity="0.28" />
    <stop offset="1" stop-color="#009EE3" stop-opacity="0" />
  </radialGradient></defs>
  <rect width="800" height="640" fill="url(#condition-shoulder-placeholder-l-bg)" />
  
  <pattern id="condition-shoulder-placeholder-l-dots" width="26" height="26" patternUnits="userSpaceOnUse">
    <circle cx="2" cy="2" r="1.6" fill="#2F2483" opacity="0.1" />
  </pattern>
  <rect width="800" height="640" fill="url(#condition-shoulder-placeholder-l-dots)" />
  <rect width="800" height="640" fill="url(#condition-shoulder-placeholder-l-glow)" />
  <circle cx="400" cy="300.8" r="192" fill="#ffffff" opacity="0.55" />
  <circle cx="400" cy="300.8" r="192" fill="none" stroke="url(#condition-shoulder-placeholder-l-brand)" stroke-width="2" opacity="0.5" />
  <g transform="translate(299.2 200) scale(8.4)" fill="url(#condition-shoulder-placeholder-l-brand)" stroke="url(#condition-shoulder-placeholder-l-brand)" stroke-linecap="round" stroke-linejoin="round" opacity="1"><path d="M4 15c1-5 4-9 8-9s7 4 8 9" fill="none" stroke-width="1.5"/><circle cx="12" cy="7.5" r="2" fill="none" stroke-width="1.5"/><path d="M8 15v5M16 15v5" fill="none" stroke-width="1.5"/></g>
  <circle cx="688" cy="102.4" r="40" fill="#5cc4ee" opacity="0.35" />
  <circle cx="80" cy="563.2" r="28.000000000000004" fill="#2F2483" opacity="0.18" />
</svg>
