<svg width="1200" height="800" viewBox="0 0 1200 800" xmlns="http://www.w3.org/2000/svg" role="img" aria-hidden="true">
  <defs>
  <linearGradient id="article-placeholder-03-bg" x1="74.99999999999999%" y1="6.698729810778062%" x2="25.00000000000001%" y2="93.30127018922194%">
    <stop offset="0" stop-color="#171240" />
    <stop offset="0.55" stop-color="#150f3f" />
    <stop offset="1" stop-color="#0e0b28" />
  </linearGradient>
  <linearGradient id="article-placeholder-03-brand" x1="0%" y1="0%" x2="100%" y2="100%">
    <stop offset="0" stop-color="#b9a9ff" />
    <stop offset="1" stop-color="#5cc4ee" />
  </linearGradient>
  <radialGradient id="article-placeholder-03-glow" cx="50%" cy="30%" r="70%">
    <stop offset="0" stop-color="#009EE3" stop-opacity="0.22" />
    <stop offset="1" stop-color="#009EE3" stop-opacity="0" />
  </radialGradient>
  <radialGradient id="article-placeholder-03-glow2" cx="15%" cy="100%" r="65%">
    <stop offset="0" stop-color="#2F2483" stop-opacity="0.35" />
    <stop offset="1" stop-color="#2F2483" stop-opacity="0" />
  </radialGradient></defs>
  <rect width="1200" height="800" fill="url(#article-placeholder-03-bg)" />
  
  <pattern id="article-placeholder-03-dots" width="26" height="26" patternUnits="userSpaceOnUse">
    <circle cx="2" cy="2" r="1.4" fill="#ffffff" opacity="0.07" />
  </pattern>
  <rect width="1200" height="800" fill="url(#article-placeholder-03-dots)" />
  <rect width="1200" height="800" fill="url(#article-placeholder-03-glow)" />
  <rect width="1200" height="800" fill="url(#article-placeholder-03-glow2)" />
  <circle cx="384" cy="400" r="256" fill="#ffffff" opacity="0.05" />
  <circle cx="384" cy="400" r="256" fill="none" stroke="url(#article-placeholder-03-brand)" stroke-width="1.3" opacity="0.4" />
  <g transform="translate(264 280) scale(10)" fill="url(#article-placeholder-03-brand)" stroke="url(#article-placeholder-03-brand)" stroke-linecap="round" stroke-linejoin="round" opacity="1"><circle cx="15.5" cy="5.5" r="1.6"/><path d="M8 20l2.5-5 3-1.5-1-4-3.5 1L7 8" fill="none" stroke-width="1.4"/><path d="M10.5 15l4 1 3-4" fill="none" stroke-width="1.4"/></g>
  <g transform="translate(720 256)" opacity="0.35">
    <g transform="translate(-128 -128) scale(14)" fill="#5cc4ee" stroke="#5cc4ee" stroke-linecap="round" stroke-linejoin="round" opacity="1"><rect x="5" y="3" width="14" height="18" rx="2" fill="none" stroke-width="1.4"/><path d="M8 8h8M8 11.5h8M8 15h5" stroke-width="1.4"/></g>
  </g>
</svg>
